<svg width="16" height="16" viewBox="0 0 16 16" fill="none" xmlns="http://www.w3.org/2000/svg">
<g clip-path="url(#clip0_3405_2583)">
<path d="M1.91716 3.77525C3.10876 3.77525 3.84949 2.99252 3.84949 2.0189C3.82371 1.02615 3.10231 0.268898 1.93648 0.268898C0.770638 0.268898 0.00415039 1.02615 0.00415039 2.02525C0.00415039 2.99887 0.744888 3.78161 1.89139 3.78161H1.91716V3.77525ZM3.62405 15.3189V5.1625H0.210263V15.3189L3.62405 15.3189Z" fill="#333333"/>
<path d="M5.51126 15.3189H8.92501V9.64892C8.91082 9.37088 8.94794 9.09261 9.03451 8.82801C9.27927 8.22347 9.84609 7.59345 10.7865 7.59345C12.0232 7.59345 12.5191 8.52256 12.5191 9.89072V15.3253H15.9329V9.49625C15.9329 6.37808 14.2453 4.92715 11.9974 4.92715C10.1552 4.92715 9.34364 5.94535 8.89921 6.63898H8.92501V5.16257H5.51126C5.55626 6.1171 5.51126 15.3189 5.51126 15.3189Z" fill="#333333"/>
</g>
<defs>
<clipPath id="clip0_3405_2583">
<rect width="16" height="16" fill="white"/>
</clipPath>
</defs>
</svg>
